<?xml version="1.0" encoding="utf-8"?>
<!-- Generator: Adobe Illustrator 16.0.0, SVG Export Plug-In . SVG Version: 6.00 Build 0)  -->
<!DOCTYPE svg PUBLIC "-//W3C//DTD SVG 1.1//EN" "http://www.w3.org/Graphics/SVG/1.1/DTD/svg11.dtd">
<svg version="1.1" id="Layer_1" xmlns="http://www.w3.org/2000/svg" xmlns:xlink="http://www.w3.org/1999/xlink" x="0px" y="0px"
	 width="460.686px" height="64.643px" viewBox="0 0 460.686 64.643" enable-background="new 0 0 460.686 64.643"
	 xml:space="preserve">
<rect x="14.282" y="21.795" fill="#C6E4F0" width="15.061" height="15.151"/>
<polygon fill="#AED6E4" points="0,36.078 0,50.36 0,64.643 14.843,64.643 14.843,50.36 14.843,36.078 "/>
<rect x="42.847" y="7.513" fill="#C6E4F0" width="14.283" height="14.809"/>
<path fill="#034566" d="M72.535,22.639c0-0.887,0.315-1.646,0.947-2.272c0.63-0.635,1.389-0.947,2.276-0.947
	c0.886,0,1.644,0.312,2.276,0.947c0.63,0.631,0.946,1.39,0.946,2.272v3.545c4.512-4.513,9.883-6.769,16.114-6.769
	c3.142,0,6.028,0.538,8.661,1.608c0.483,0.188,0.926,0.474,1.329,0.849c0.618,0.646,0.927,1.411,0.927,2.297
	c0,0.887-0.317,1.646-0.947,2.272c-0.632,0.635-1.39,0.946-2.276,0.946c-0.511,0-0.981-0.104-1.41-0.322
	c-1.907-0.806-4.002-1.208-6.284-1.208c-4.458,0-8.258,1.571-11.401,4.717c-3.141,3.143-4.713,6.938-4.713,11.396V61.31
	c0,0.89-0.316,1.646-0.946,2.275c-0.632,0.632-1.39,0.947-2.276,0.947c-0.887,0-1.646-0.315-2.276-0.947
	c-0.632-0.631-0.947-1.394-0.947-2.275V22.639z"/>
<path fill="#034566" d="M150.724,41.974c0,6.231-2.203,11.549-6.607,15.952c-4.405,4.405-9.722,6.607-15.952,6.607
	s-11.548-2.202-15.952-6.607c-4.405-4.403-6.607-9.721-6.607-15.952c0-6.229,2.202-11.547,6.607-15.951
	c4.404-4.4,9.722-6.604,15.952-6.604s11.547,2.202,15.952,6.604C148.521,30.427,150.724,35.744,150.724,41.974 M128.165,25.861
	c-4.458,0-8.258,1.57-11.4,4.717c-3.142,3.142-4.713,6.938-4.713,11.396c0,4.458,1.571,8.259,4.713,11.401
	c3.142,3.141,6.942,4.713,11.4,4.713s8.258-1.572,11.4-4.713c3.142-3.146,4.713-6.943,4.713-11.401
	c0-4.457-1.571-8.258-4.713-11.396C136.423,27.432,132.623,25.861,128.165,25.861"/>
<path fill="#034566" d="M190.328,53.495c0.886,0,1.645,0.312,2.276,0.943c0.631,0.635,0.947,1.393,0.947,2.276
	s-0.336,1.678-1.008,2.376c-4.162,3.626-9.063,5.438-14.703,5.438c-6.23,0-11.548-2.202-15.952-6.606
	c-4.405-4.404-6.606-9.723-6.606-15.952c0-6.229,2.201-11.547,6.606-15.952c4.404-4.4,9.722-6.604,15.952-6.604
	c5.64,0,10.541,1.812,14.703,5.438c0.752,0.671,1.128,1.504,1.128,2.497c0,0.891-0.316,1.646-0.946,2.275
	c-0.631,0.633-1.39,0.947-2.276,0.947c-0.779,0-1.464-0.242-2.055-0.729c-3.007-2.659-6.525-3.988-10.554-3.988
	c-4.458,0-8.258,1.571-11.4,4.717c-3.142,3.143-4.713,6.938-4.713,11.396s1.571,8.258,4.713,11.399
	c3.142,3.143,6.942,4.713,11.4,4.713c4.029,0,7.533-1.314,10.514-3.946C188.918,53.71,189.576,53.495,190.328,53.495"/>
<path fill="#034566" d="M206.194,37.624l27.271-17.729c0.511-0.317,1.088-0.479,1.733-0.479c0.886,0,1.644,0.312,2.275,0.946
	c0.631,0.632,0.943,1.39,0.943,2.272s-0.312,1.638-0.927,2.256c-0.161,0.161-0.312,0.295-0.443,0.402l-18.69,12.167l19.174,21.592
	c0.591,0.646,0.887,1.396,0.887,2.256c0,0.89-0.312,1.646-0.944,2.275c-0.635,0.632-1.393,0.947-2.274,0.947
	c-0.886,0-1.666-0.322-2.337-0.972L212.84,41.008l-6.646,4.31v15.993c0,0.89-0.316,1.646-0.947,2.275
	c-0.631,0.632-1.389,0.947-2.276,0.947c-0.886,0-1.645-0.315-2.276-0.947c-0.631-0.63-0.946-1.39-0.946-2.275V3.303
	c0-0.887,0.315-1.645,0.946-2.276c0.631-0.631,1.39-0.942,2.276-0.942c0.887,0,1.646,0.312,2.276,0.942
	c0.631,0.636,0.947,1.394,0.947,2.276V37.624z"/>
<path fill="#034566" d="M274.231,53.575c0.887,0,1.646,0.312,2.272,0.943s0.947,1.395,0.947,2.276s-0.312,1.649-0.931,2.296
	c-4.16,3.626-9.062,5.438-14.699,5.438c-6.231,0-11.551-2.2-15.952-6.605c-4.405-4.404-6.607-9.722-6.607-15.952
	c0-6.229,2.202-11.548,6.607-15.952c4.401-4.401,9.721-6.604,15.952-6.604c6.229,0,11.547,2.201,15.949,6.604
	c4.402,4.404,6.605,9.727,6.605,15.952c0,0.886-0.314,1.646-0.947,2.276c-0.632,0.63-1.39,0.943-2.271,0.943H245.99
	c0.59,3.092,2.063,5.813,4.431,8.181c3.146,3.142,6.942,4.713,11.4,4.713c4.023,0,7.49-1.275,10.393-3.827
	C272.808,53.805,273.479,53.575,274.231,53.575 M277.656,38.752c-0.591-3.088-2.068-5.814-4.433-8.179
	c-3.145-3.145-6.941-4.717-11.398-4.717c-4.458,0-8.258,1.572-11.4,4.717c-2.363,2.36-3.841,5.091-4.431,8.179H277.656z"/>
<path fill="#034566" d="M288.94,22.639c0-0.887,0.312-1.646,0.943-2.272c0.635-0.635,1.393-0.947,2.276-0.947
	s1.646,0.312,2.272,0.947c0.631,0.631,0.945,1.39,0.945,2.272v3.545c4.514-4.513,9.885-6.769,16.114-6.769
	c3.144,0,6.028,0.538,8.661,1.608c0.48,0.188,0.926,0.474,1.328,0.849c0.619,0.646,0.928,1.411,0.928,2.297
	c0,0.887-0.316,1.646-0.947,2.272c-0.632,0.635-1.39,0.946-2.273,0.946c-0.512,0-0.979-0.104-1.408-0.322
	c-1.907-0.806-4.002-1.208-6.284-1.208c-4.458,0-8.258,1.571-11.397,4.717c-3.145,3.143-4.716,6.938-4.716,11.396V61.31
	c0,0.89-0.312,1.646-0.942,2.275c-0.633,0.632-1.395,0.947-2.276,0.947c-0.887,0-1.646-0.315-2.276-0.947
	c-0.632-0.631-0.942-1.394-0.942-2.275V22.639H288.94z"/>
<path fill="#034566" d="M333.233,26.184l0.16-0.161c4.401-4.401,9.723-6.604,15.949-6.604c6.229,0,11.551,2.201,15.952,6.604
	c4.403,4.404,6.604,9.726,6.604,15.952c0,6.229-2.201,11.548-6.604,15.952c-4.401,4.405-9.723,6.605-15.952,6.605
	c-6.229,0-11.548-2.2-15.949-6.605c-4.404-4.404-6.606-9.723-6.606-15.952V3.222c0-0.886,0.315-1.645,0.946-2.272
	c0.632-0.634,1.391-0.945,2.273-0.945s1.646,0.312,2.275,0.945c0.631,0.632,0.943,1.391,0.943,2.272v22.962H333.233z
	 M349.347,58.088c4.458,0,8.258-1.571,11.399-4.713c3.143-3.146,4.713-6.942,4.713-11.4s-1.57-8.258-4.713-11.397
	c-3.142-3.145-6.941-4.717-11.399-4.717c-4.457,0-8.258,1.572-11.396,4.717c-3.146,3.144-4.717,6.939-4.717,11.397
	s1.572,8.258,4.717,11.4C341.089,56.517,344.89,58.088,349.347,58.088"/>
<path fill="#034566" d="M421.993,41.974c0,6.231-2.203,11.549-6.606,15.952c-4.401,4.405-9.723,6.607-15.951,6.607
	c-6.228,0-11.549-2.202-15.952-6.607c-4.402-4.403-6.604-9.721-6.604-15.952c0-6.229,2.202-11.547,6.604-15.951
	c4.403-4.4,9.725-6.604,15.952-6.604c6.229,0,11.55,2.202,15.951,6.604C419.79,30.427,421.993,35.744,421.993,41.974
	 M399.436,25.861c-4.458,0-8.259,1.57-11.397,4.717c-3.145,3.142-4.713,6.938-4.713,11.396c0,4.458,1.568,8.259,4.713,11.401
	c3.145,3.141,6.939,4.713,11.397,4.713c4.457,0,8.261-1.572,11.398-4.713c3.143-3.146,4.713-6.943,4.713-11.401
	c0-4.457-1.57-8.258-4.713-11.396C407.692,27.432,403.893,25.861,399.436,25.861"/>
<path fill="#034566" d="M437.159,41.935l-14.381-17.201c-0.515-0.591-0.769-1.289-0.769-2.095c0-0.887,0.314-1.645,0.945-2.272
	c0.632-0.635,1.391-0.947,2.275-0.947c0.886,0,1.679,0.336,2.378,1.007L441.347,36.9l13.736-16.477
	c0.698-0.671,1.491-1.007,2.377-1.007c0.887,0,1.646,0.312,2.276,0.947c0.63,0.632,0.942,1.39,0.942,2.272
	c0,0.806-0.255,1.504-0.766,2.095l-14.381,17.201l14.502,17.401c0.43,0.562,0.645,1.224,0.645,1.975c0,0.89-0.312,1.646-0.942,2.275
	c-0.633,0.631-1.394,0.947-2.276,0.947s-1.638-0.323-2.256-0.971l-13.855-16.59l-13.854,16.597c-0.618,0.646-1.37,0.971-2.256,0.971
	c-0.89,0-1.646-0.316-2.276-0.947s-0.945-1.39-0.945-2.275c0-0.751,0.217-1.408,0.646-1.975L437.159,41.935z"/>
<polygon fill="#51A2CB" points="14.283,36.078 14.283,50.36 14.283,64.643 29.093,64.643 29.093,50.36 29.093,36.078 "/>
<polygon fill="#51A2CB" points="42.848,21.796 28.565,21.796 28.565,36.697 42.848,36.697 57.13,36.697 57.13,21.796 "/>
<polygon fill="#2573B9" points="42.848,36.078 28.565,36.078 28.565,50.36 28.565,64.643 42.848,64.643 42.848,50.36 57.13,50.36 
	57.13,36.078 "/>
<rect x="42.434" y="49.948" fill="#034566" width="14.696" height="14.694"/>
</svg>
